<svg xmlns="http://www.w3.org/2000/svg" width="23" height="23"><path fill-rule="evenodd" d="M11.565 2.594a9.625 9.625 0 0 1 9.69 9.625v5.031a2.438 2.438 0 0 1-2.437 2.438h-1.437a2.438 2.438 0 0 1-2.438-2.438v-3.594a2.438 2.438 0 0 1 2.438-2.437h1.809a7.623 7.623 0 0 0-7.617-6.625h-.015a7.625 7.625 0 0 0-7.617 6.625H5.75a2.438 2.438 0 0 1 2.438 2.437v3.594a2.437 2.437 0 0 1-2.438 2.438H4.312a2.438 2.438 0 0 1-2.437-2.438v-5.031a9.625 9.625 0 0 1 9.69-9.625Zm-7.69 10.625v4.031a.438.438 0 0 0 .438.438H5.75a.438.438 0 0 0 .438-.438v-3.594a.437.437 0 0 0-.438-.437H3.875Zm15.38 0h-1.874a.437.437 0 0 0-.438.437v3.594a.438.438 0 0 0 .438.438h1.437a.438.438 0 0 0 .438-.438v-4.031Zm-7.69-9.625Z" clip-rule="evenodd"/></svg>