<svg version="1.0" xmlns="http://www.w3.org/2000/svg" width="933.333" height="933.333" viewBox="0 0 700 700"><path d="M328.9 79.4c-.2.2-3.5.7-7.4 1-23.7 2-54.2 9.3-78.5 18.8-11.7 4.6-36.8 16.9-44.5 21.9-11.2 7.2-13.3 8.6-20 13.3-6.4 4.6-12 9-21.5 17.1-11.4 9.7-26.1 25.6-42 45.2-3.8 4.6-18.8 28.7-23.4 37.3-19.1 36.3-29.4 71.1-33.5 113.5-.5 4.9-.9 49.9-.8 100l.2 91 3.1 9c4.4 12.4 9.5 20.6 18.4 29.6 9.9 9.9 21.5 16.6 36.2 20.6 4.4 1.2 65.9 1.5 72.7.3 19.3-3.4 38-15.5 48.8-31.8 3.3-5.1 10.8-21.2 9.8-21.2-.3 0 0-1.1.5-2.5 1.9-4.9 2.1-13.3 2.1-73.6 0-59.9 0-61.8-2.2-70.5-6.2-25.5-24.5-45.3-48.9-53.2-10.3-3.3-13.6-3.5-46.5-3.7l-31-.1v-2.5c0-1.3.3-4 .7-5.9.5-1.9 1.1-5.1 1.4-7 .8-5.1 3.2-14.4 5.9-23.2 15.6-49.9 46.2-91.2 91.3-123.1 2.8-2 5.4-3.7 5.7-3.7.2 0 2.8-1.5 5.7-3.3 21-13.3 55.3-25.9 81.1-29.7 4.3-.6 8.8-1.3 10-1.5 5.1-.9 19-1.6 30.7-1.5 19.5 0 28.1.9 47 4.6 82.9 16.4 151.4 78.7 176 159.9 3.2 10.5 6.8 26.8 7.2 32.9l.3 4-32 .2c-26.7.1-33.2.4-39.5 1.9-28 6.6-49 28.4-56 58-.8 3.5-1.1 23.1-1.1 67 0 34.1.3 63.6.5 65.5.8 7 1.7 10.4 4.6 17.9 8 20.7 24.2 36 46.5 43.8l8 2.8h73l7.9-2.8c11.3-4 21.1-10 29.2-18.1 8-8 11-12.3 15.3-21.6 6.9-14.8 6.6-9.7 6.6-110.5 0-79.6-.4-102.2-1.9-110.1-.2-1.1-.8-4.7-1.2-7.9-.4-3.3-.9-6.2-.9-6.5-.1-.3-.5-2.3-.9-4.5-11.3-57.1-38.9-109.6-79.1-150-13.7-13.8-19.4-18.8-31.5-27.9-26.6-20-55.8-35.3-87.1-45.4-6.8-2.3-13.6-4.3-14.9-4.6-18.9-4.2-31.4-6.6-37.2-7.1-4-.4-8.1-.9-9.2-1.2-2.5-.6-53.1-1.5-53.7-.9zM181.7 404.3c6.8 3.6 6.6 2.1 6.7 63.7.1 30.5-.2 57.3-.7 59.5-1 5.3-6.4 10.5-10.9 10.6-1.8 0-13.4.1-25.8.2-25.1 0-27.3-.4-31-6.6-1.9-3.1-2-5.5-2-65.8 0-34.4.2-62.8.5-63.1.3-.3 13.9-.4 30.3-.4 26.1.2 30.1.4 32.9 1.9zM586 464.9c0 69.8.2 67.4-6.9 71.5-3.2 1.8-5.3 2-28.5 1.9-17.2 0-25.8-.4-27.3-1.2-1.2-.6-3.5-2.7-5-4.7l-2.7-3.6-.1-55.7c0-30.6.3-57.5.7-59.9.8-4.7 3.9-8.4 8.3-9.9 1.5-.5 16-.9 32.2-.9H586v62.5z"/></svg>