<svg aria-hidden="true" style="width:0;height:0;position:absolute;overflow:hidden" xmlns="http://www.w3.org/2000/svg"><defs><symbol id="icon-search" viewBox="0 0 32 32"><path d="m31.008 27.231-7.58-6.447c-.784-.705-1.622-1.029-2.299-.998a11.954 11.954 0 0 0 2.87-7.787c0-6.627-5.373-12-12-12s-12 5.373-12 12 5.373 12 12 12c2.972 0 5.691-1.081 7.787-2.87-.031.677.293 1.515.998 2.299l6.447 7.58c1.104 1.226 2.907 1.33 4.007.23s.997-2.903-.23-4.007zM12 20a8 8 0 1 1 0-16 8 8 0 0 1 0 16z"/></symbol><symbol id="icon-heart" viewBox="0 0 32 32"><path d="M23.6 2c-3.363 0-6.258 2.736-7.599 5.594C14.659 4.736 11.764 2 8.4 2 3.763 2 0 5.764 0 10.401c0 9.433 9.516 11.906 16.001 21.232C22.131 22.365 32 19.533 32 10.401 32 5.764 28.237 2 23.6 2z"/></symbol><symbol id="icon-play2" viewBox="0 0 32 32"><path d="M16 0C7.163 0 0 7.163 0 16s7.163 16 16 16 16-7.163 16-16S24.837 0 16 0zm0 29C8.82 29 3 23.18 3 16S8.82 3 16 3s13 5.82 13 13-5.82 13-13 13zM12 9l12 7-12 7z"/></symbol><symbol id="icon-pause" viewBox="0 0 32 32"><path d="M16 0C7.163 0 0 7.163 0 16s7.163 16 16 16 16-7.163 16-16S24.837 0 16 0zm0 29C8.82 29 3 23.18 3 16S8.82 3 16 3s13 5.82 13 13-5.82 13-13 13zm-6-19h4v12h-4zm8 0h4v12h-4z"/></symbol><symbol id="icon-play3" viewBox="0 0 32 32"><path d="m6 4 20 12L6 28z"/></symbol><symbol id="icon-pause2" viewBox="0 0 32 32"><path d="M4 4h10v24H4zm14 0h10v24H18z"/></symbol><symbol id="icon-stop2" viewBox="0 0 32 32"><path d="M4 4h24v24H4z"/></symbol><symbol id="icon-backward" viewBox="0 0 32 32"><path d="M18 5v10L28 5v22L18 17v10L7 16z"/></symbol><symbol id="icon-forward" viewBox="0 0 32 32"><path d="M16 27V17L6 27V5l10 10V5l11 11z"/></symbol><symbol id="icon-volumehigh" viewBox="0 0 34 32"><path d="M27.814 28.814a1.5 1.5 0 0 1-1.061-2.56C29.492 23.515 31 19.874 31 16.001s-1.508-7.514-4.247-10.253a1.5 1.5 0 1 1 2.121-2.121C32.179 6.932 34 11.327 34 16.001s-1.82 9.069-5.126 12.374a1.495 1.495 0 0 1-1.061.439zm-5.329-2.829a1.5 1.5 0 0 1-1.061-2.56c4.094-4.094 4.094-10.755 0-14.849a1.5 1.5 0 1 1 2.121-2.121c2.55 2.55 3.954 5.94 3.954 9.546s-1.404 6.996-3.954 9.546a1.495 1.495 0 0 1-1.061.439zm-5.328-2.828a1.5 1.5 0 0 1-1.061-2.56 6.508 6.508 0 0 0 0-9.192 1.5 1.5 0 1 1 2.121-2.121c3.704 3.704 3.704 9.731 0 13.435a1.495 1.495 0 0 1-1.061.439zM13 30a1 1 0 0 1-.707-.293L4.586 22H1a1 1 0 0 1-1-1V11a1 1 0 0 1 1-1h3.586l7.707-7.707A1 1 0 0 1 14 3v26a1.002 1.002 0 0 1-1 1z"/></symbol><symbol id="icon-volumemute" viewBox="0 0 32 32"><path d="M30 19.348V22h-2.652L24 18.652 20.652 22H18v-2.652L21.348 16 18 12.652V10h2.652L24 13.348 27.348 10H30v2.652L26.652 16 30 19.348zM13 30a1 1 0 0 1-.707-.293L4.586 22H1a1 1 0 0 1-1-1V11a1 1 0 0 1 1-1h3.586l7.707-7.707A1 1 0 0 1 14 3v26a1.002 1.002 0 0 1-1 1z"/></symbol><symbol id="icon-headphones" viewBox="0 0 32 32"><path d="M9 18H7v14h2c.55 0 1-.45 1-1V19c0-.55-.45-1-1-1zM23 18c-.55 0-1 .45-1 1v12c0 .55.45 1 1 1h2V18h-2z"/><path d="M32 16c0-8.837-7.163-16-16-16S0 7.163 0 16c0 1.919.338 3.759.958 5.464A7.003 7.003 0 0 0 6 31.929V18.072a6.957 6.957 0 0 0-2.742 1.012A13.09 13.09 0 0 1 3 16.5c0-7.18 5.82-13 13-13s13 5.82 13 13c0 .885-.088 1.749-.257 2.584A6.963 6.963 0 0 0 26 18.071v13.858a7.001 7.001 0 0 0 5.042-10.465c.62-1.705.958-3.545.958-5.465z"/></symbol><symbol id="icon-arrow-right2" viewBox="0 0 32 32"><path d="m19.414 27.414 10-10a2 2 0 0 0 0-2.828l-10-10a2 2 0 1 0-2.828 2.828L23.172 14H4a2 2 0 1 0 0 4h19.172l-6.586 6.586c-.39.39-.586.902-.586 1.414s.195 1.024.586 1.414a2 2 0 0 0 2.828 0z"/></symbol></defs></svg>