<?xml version="1.0" standalone="no"?>
<!DOCTYPE svg PUBLIC "-//W3C//DTD SVG 20010904//EN"
 "http://www.w3.org/TR/2001/REC-SVG-20010904/DTD/svg10.dtd">
<svg version="1.0" xmlns="http://www.w3.org/2000/svg"
 width="700.000000pt" height="700.000000pt" viewBox="0 0 700.000000 700.000000"
 preserveAspectRatio="xMidYMid meet">
<metadata>
Created by potrace 1.14, written by Peter Selinger 2001-2017
</metadata>
<g transform="translate(0.000000,700.000000) scale(0.100000,-0.100000)"
fill="#000000" stroke="none">
<path d="M3289 6206 c-2 -2 -35 -7 -74 -10 -237 -20 -542 -93 -785 -188 -117
-46 -368 -169 -445 -219 -112 -72 -133 -86 -200 -133 -64 -46 -120 -90 -215
-171 -114 -97 -261 -256 -420 -452 -38 -46 -188 -287 -234 -373 -191 -363
-294 -711 -335 -1135 -5 -49 -9 -499 -8 -1000 l2 -910 31 -90 c44 -124 95
-206 184 -296 99 -99 215 -166 362 -206 44 -12 659 -15 727 -3 193 34 380 155
488 318 33 51 108 212 98 212 -3 0 0 11 5 25 19 49 21 133 21 736 0 599 0 618
-22 705 -62 255 -245 453 -489 532 -103 33 -136 35 -465 37 l-310 1 0 25 c0
13 3 40 7 59 5 19 11 51 14 70 8 51 32 144 59 232 156 499 462 912 913 1231
28 20 54 37 57 37 2 0 28 15 57 33 210 133 553 259 811 297 43 6 88 13 100 15
51 9 190 16 307 15 195 0 281 -9 470 -46 829 -164 1514 -787 1760 -1599 32
-105 68 -268 72 -329 l3 -40 -320 -2 c-267 -1 -332 -4 -395 -19 -280 -66 -490
-284 -560 -580 -8 -35 -11 -231 -11 -670 0 -341 3 -636 5 -655 8 -70 17 -104
46 -179 80 -207 242 -360 465 -438 l80 -28 365 0 365 0 79 28 c113 40 211 100
292 181 80 80 110 123 153 216 69 148 66 97 66 1105 0 796 -4 1022 -19 1101
-2 11 -8 47 -12 79 -4 33 -9 62 -9 65 -1 3 -5 23 -9 45 -113 571 -389 1096
-791 1500 -137 138 -194 188 -315 279 -266 200 -558 353 -871 454 -68 23 -136
43 -149 46 -189 42 -314 66 -372 71 -40 4 -81 9 -92 12 -25 6 -531 15 -537 9z
m-1472 -3249 c68 -36 66 -21 67 -637 1 -305 -2 -573 -7 -595 -10 -53 -64 -105
-109 -106 -18 0 -134 -1 -258 -2 -251 0 -273 4 -310 66 -19 31 -20 55 -20 658
0 344 2 628 5 631 3 3 139 4 303 4 261 -2 301 -4 329 -19z m4043 -606 c0 -698
2 -674 -69 -715 -32 -18 -53 -20 -285 -19 -172 0 -258 4 -273 12 -12 6 -35 27
-50 47 l-27 36 -1 557 c0 306 3 575 7 599 8 47 39 84 83 99 15 5 160 9 322 9
l293 0 0 -625z"/>
</g>
</svg>
